<svg xmlns="http://www.w3.org/2000/svg" width="1024" height="1024" viewBox="0 0 1024 1024">
  <defs>
    <linearGradient id="bg" x1="0" y1="0" x2="0" y2="1">
      <stop offset="0" stop-color="#a9b7ba"/>
      <stop offset="1" stop-color="#96a4a8"/>
    </linearGradient>
    <linearGradient id="hammerMetal" x1="0" y1="0" x2="1" y2="0">
      <stop offset="0" stop-color="#d9d9d9"/>
      <stop offset="0.5" stop-color="#b8b8b8"/>
      <stop offset="1" stop-color="#8f8f8f"/>
    </linearGradient>
    <linearGradient id="hammerWood" x1="0" y1="0" x2="0" y2="1">
      <stop offset="0" stop-color="#a56b3c"/>
      <stop offset="1" stop-color="#6f4020"/>
    </linearGradient>
  </defs>
  <rect width="1024" height="1024" rx="180" fill="url(#bg)"/>
  <g transform="translate(520 540) scale(1.21) translate(-520 -540)">
    <rect x="270" y="290" width="500" height="520" rx="60" fill="#a0a9b6" stroke="#2b2b2b" stroke-width="14"/>
    <rect x="320" y="340" width="400" height="120" rx="30" fill="#3c4a5c" stroke="#1c1c1c" stroke-width="10"/>
    <rect x="360" y="370" width="90" height="70" fill="#ff6b6b"/>
    <rect x="590" y="370" width="90" height="70" fill="#ff6b6b"/>
    <rect x="395" y="395" width="30" height="20" fill="#2b2b2b"/>
    <rect x="625" y="395" width="30" height="20" fill="#2b2b2b"/>
    <rect x="450" y="520" width="140" height="120" rx="16" fill="#4e5a6d"/>
    <g stroke="#1f1f1f" stroke-width="8">
      <line x1="460" y1="530" x2="460" y2="630"/>
      <line x1="480" y1="530" x2="480" y2="630"/>
      <line x1="500" y1="530" x2="500" y2="630"/>
      <line x1="520" y1="530" x2="520" y2="630"/>
      <line x1="540" y1="530" x2="540" y2="630"/>
      <line x1="560" y1="530" x2="560" y2="630"/>
      <line x1="580" y1="530" x2="580" y2="630"/>
    </g>
    <circle cx="270" cy="540" r="32" fill="#707781" stroke="#2b2b2b" stroke-width="10"/>
    <circle cx="770" cy="540" r="32" fill="#707781" stroke="#2b2b2b" stroke-width="10"/>
    <rect x="505" y="250" width="30" height="80" fill="#d43c3c"/>
    <circle cx="520" cy="235" r="28" fill="#d43c3c"/>
  </g>
  <g transform="translate(880 130) scale(1.32) translate(-880 -130)">
    <g transform="translate(880 130) rotate(65)">
      <rect x="-10" y="30" width="320" height="48" rx="22" fill="url(#hammerWood)" stroke="#5a3418" stroke-width="8"/>
    </g>
    <g transform="translate(860 130) rotate(-25)">
      <rect x="-130" y="-45" width="210" height="120" rx="18" fill="url(#hammerMetal)" stroke="#6b6b6b" stroke-width="10"/>
      <rect x="-90" y="-20" width="140" height="8" rx="4" fill="#e7e7e7" opacity="0.6"/>
    </g>
  </g>
  <g transform="translate(625 224) scale(1.2) translate(-625 -224)">
    <polygon points="615,170 640,190 670,182 662,210 690,225 660,238 670,266 640,258 615,278 605,250 575,258 585,230 560,215 585,205 575,178 605,188" fill="#ffd34d" stroke="#cc9a1d" stroke-width="8"/>
  </g>
</svg>
