<svg xmlns="http://www.w3.org/2000/svg" width="1024" height="1024" viewBox="0 0 1024 1024">
  <defs>
    <linearGradient id="bg" x1="0" y1="0" x2="0" y2="1">
      <stop offset="0" stop-color="#a9b7ba"/>
      <stop offset="1" stop-color="#96a4a8"/>
    </linearGradient>
    <linearGradient id="hammerMetal" x1="0" y1="0" x2="1" y2="0">
      <stop offset="0" stop-color="#d9d9d9"/>
      <stop offset="0.5" stop-color="#b8b8b8"/>
      <stop offset="1" stop-color="#8f8f8f"/>
    </linearGradient>
    <linearGradient id="hammerWood" x1="0" y1="0" x2="0" y2="1">
      <stop offset="0" stop-color="#a56b3c"/>
      <stop offset="1" stop-color="#6f4020"/>
    </linearGradient>
  </defs>
  <rect width="1024" height="1024" rx="180" fill="url(#bg)"/>
  <circle cx="520" cy="540" r="270" fill="#f2c48a" stroke="#c6935f" stroke-width="14"/>
  <ellipse cx="515" cy="545" rx="240" ry="220" fill="#f6cf9f" opacity="0.8"/>
  <path d="M 340 610 L 380 585 L 420 615 L 460 585 L 500 615 L 540 585 L 580 615 L 620 585 L 660 610" fill="none" stroke="#7a1f1f" stroke-width="20" stroke-linecap="round" stroke-linejoin="round"/>
  <circle cx="400" cy="490" r="32" fill="#ffffff"/>
  <circle cx="640" cy="490" r="32" fill="#ffffff"/>
  <path d="M 392 495 C 402 486 418 486 428 495" fill="none" stroke="#2b2b2b" stroke-width="10" stroke-linecap="round"/>
  <path d="M 632 495 C 642 486 658 486 668 495" fill="none" stroke="#2b2b2b" stroke-width="10" stroke-linecap="round"/>
  <path d="M 360 450 C 400 420 470 420 510 450" fill="none" stroke="#2b2b2b" stroke-width="16" stroke-linecap="round"/>
  <path d="M 570 450 C 610 420 680 420 720 450" fill="none" stroke="#2b2b2b" stroke-width="16" stroke-linecap="round"/>
  <path d="M 520 520 C 565 520 585 560 545 590" fill="none" stroke="#d08a5b" stroke-width="14" stroke-linecap="round"/>
  <path d="M 280 410 C 340 300 450 250 570 260 C 680 270 760 340 790 430" fill="none" stroke="#2b2b2b" stroke-width="30" stroke-linecap="round"/>
  <path d="M 270 430 C 300 370 360 330 420 320" fill="none" stroke="#2b2b2b" stroke-width="26" stroke-linecap="round"/>
  <path d="M 620 320 C 690 335 750 380 780 440" fill="none" stroke="#2b2b2b" stroke-width="26" stroke-linecap="round"/>
  <circle cx="250" cy="560" r="36" fill="#f2c48a" stroke="#c6935f" stroke-width="12"/>
  <circle cx="790" cy="560" r="36" fill="#f2c48a" stroke="#c6935f" stroke-width="12"/>
  <rect x="420" y="690" width="200" height="90" rx="30" fill="#c74d3a"/>
  <rect x="420" y="720" width="200" height="30" rx="15" fill="#b13d2d"/>
  <g transform="translate(720 130) rotate(65)">
    <rect x="-10" y="30" width="320" height="48" rx="22" fill="url(#hammerWood)" stroke="#5a3418" stroke-width="8"/>
  </g>
  <g transform="translate(700 130) rotate(-25)">
    <rect x="-130" y="-45" width="210" height="120" rx="18" fill="url(#hammerMetal)" stroke="#6b6b6b" stroke-width="10"/>
    <rect x="-90" y="-20" width="140" height="8" rx="4" fill="#e7e7e7" opacity="0.6"/>
  </g>
  <polygon points="615,170 640,190 670,182 662,210 690,225 660,238 670,266 640,258 615,278 605,250 575,258 585,230 560,215 585,205 575,178 605,188" fill="#ffd34d" stroke="#cc9a1d" stroke-width="8"/>
</svg>
