<svg xmlns="http://www.w3.org/2000/svg" width="100" height="120" viewBox="0 0 100 120"><ellipse cx="50" cy="46" rx="32" ry="36" fill="#f2d1b1" stroke="#8a5a2b" stroke-width="2"/><path d="M22 32 Q50 8 78 32" fill="#7a4a2a"/><circle cx="50" cy="18" r="8" fill="#7a4a2a"/><rect x="24" y="42" width="20" height="12" rx="4" fill="none" stroke="#3a2a1a" stroke-width="2"/><rect x="56" y="42" width="20" height="12" rx="4" fill="none" stroke="#3a2a1a" stroke-width="2"/><line x1="44" y1="48" x2="56" y2="48" stroke="#3a2a1a" stroke-width="2"/><circle cx="34" cy="48" r="3" fill="#2b2b2b"/><circle cx="66" cy="48" r="3" fill="#2b2b2b"/><path d="M50 54 Q46 62 50 66 Q54 62 50 54" fill="#d9a46f" stroke="#8a5a2b" stroke-width="1"/><path d="M34 70 Q50 80 66 70" fill="none" stroke="#7a1f1f" stroke-width="2"/><rect x="28" y="78" width="44" height="34" fill="#e2e2e2" stroke="#b0b0b0" stroke-width="2"/><rect x="28" y="92" width="44" height="6" fill="#c8c8c8"/><rect x="76" y="76" width="6" height="36" fill="#8b5a2b"/><polygon points="74,112 90,112 86,118 70,118" fill="#c9a94b"/></svg>