<svg xmlns="http://www.w3.org/2000/svg" width="256" height="256" viewBox="0 0 256 256"><ellipse cx="128" cy="30" rx="60" ry="16" fill="none" stroke="#f3d36b" stroke-width="6"/><ellipse cx="128" cy="30" rx="48" ry="10" fill="none" stroke="#fff2a3" stroke-width="3"/><path d="M30 132 Q10 150 30 176 Q48 202 70 186" fill="#eef2ff" stroke="#c0c8e8" stroke-width="3"/><path d="M226 132 Q246 150 226 176 Q208 202 186 186" fill="#eef2ff" stroke="#c0c8e8" stroke-width="3"/><ellipse cx="128.0" cy="122.0" rx="80.0" ry="90.0" fill="#f5d7b2" stroke="#8a5a2b" stroke-width="4"/><ellipse cx="98" cy="106" rx="18" ry="14" fill="#ffffff" stroke="#3a2a1a" stroke-width="2"/><ellipse cx="158" cy="106" rx="18" ry="14" fill="#ffffff" stroke="#3a2a1a" stroke-width="2"/><circle cx="98" cy="108" r="6" fill="#2b2b2b"/><circle cx="158" cy="108" r="6" fill="#2b2b2b"/><circle cx="95" cy="104" r="2" fill="#ffffff"/><circle cx="155" cy="104" r="2" fill="#ffffff"/><path d="M74 86 L122 86" stroke="#3a2a1a" stroke-width="4" stroke-linecap="round"/><path d="M134 86 L182 86" stroke="#3a2a1a" stroke-width="4" stroke-linecap="round"/><path d="M128 118 Q120 134 128 144 Q136 134 128 118" fill="#d9a46f" stroke="#8a5a2b" stroke-width="2"/><ellipse cx="86" cy="140" rx="14" ry="9" fill="#f2a6a6" opacity="0.6"/><ellipse cx="170" cy="140" rx="14" ry="9" fill="#f2a6a6" opacity="0.6"/><path d="M92 150 Q128 182 164 150" fill="none" stroke="#7a1f1f" stroke-width="5" stroke-linecap="round"/></svg>