<svg xmlns="http://www.w3.org/2000/svg" width="256" height="256" viewBox="0 0 256 256"><path d="M54 90 L128 6 L202 90" fill="#2c232c" stroke="#121012" stroke-width="3"/><rect x="38" y="90" width="180" height="18" rx="6" fill="#231b23" stroke="#121012" stroke-width="2"/><rect x="96" y="90" width="64" height="18" fill="#7a1f1f"/><ellipse cx="128.0" cy="126.0" rx="82.0" ry="92.0" fill="#e6c7a2" stroke="#7a4a2a" stroke-width="4"/><path d="M70 92 L120 76" stroke="#2a1a12" stroke-width="7" stroke-linecap="round"/><path d="M186 86 L136 76" stroke="#2a1a12" stroke-width="7" stroke-linecap="round"/><ellipse cx="96" cy="110" rx="18" ry="14" fill="#ffffff" stroke="#3a2a1a" stroke-width="2"/><ellipse cx="160" cy="108" rx="18" ry="14" fill="#ffffff" stroke="#3a2a1a" stroke-width="2"/><circle cx="96" cy="112" r="6" fill="#2b1b1b"/><circle cx="160" cy="110" r="6" fill="#2b1b1b"/><circle cx="93" cy="108" r="2" fill="#ffffff"/><circle cx="157" cy="106" r="2" fill="#ffffff"/><path d="M128 118 Q110 142 120 160 Q140 172 146 154 Q150 138 140 126" fill="#d5a877" stroke="#7a4a2a" stroke-width="3"/><path d="M82 146 Q128 210 174 146" fill="#d0d0d0" stroke="#a8a8a8" stroke-width="3"/><path d="M100 150 Q128 188 156 150" fill="none" stroke="#a8a8a8" stroke-width="2"/><circle cx="104" cy="150" r="3" fill="#7a4a2a"/><path d="M86 172 Q128 196 170 172" fill="none" stroke="#4a1a1a" stroke-width="6" stroke-linecap="round"/><polygon points="118,176 124,190 130,176" fill="#ffffff"/><polygon points="130,176 136,190 142,176" fill="#ffffff"/><path d="M70 210 Q128 240 186 210 L196 256 L60 256" fill="#3d2f3f" stroke="#1f161f" stroke-width="3"/><path d="M112 214 L144 214 L150 256 L106 256" fill="#2b202d"/></svg>