<svg xmlns="http://www.w3.org/2000/svg" width="100" height="120" viewBox="0 0 100 120"><rect x="22" y="20" width="56" height="10" rx="5" fill="#ff4b4b"/><ellipse cx="50" cy="48" rx="30" ry="34" fill="#f2d3b0" stroke="#8a5a2b" stroke-width="2"/><ellipse cx="82" cy="52" rx="12" ry="10" fill="#7a4a2a"/><ellipse cx="38" cy="48" rx="8" ry="6" fill="#ffffff" stroke="#3a2a1a" stroke-width="1"/><ellipse cx="62" cy="48" rx="8" ry="6" fill="#ffffff" stroke="#3a2a1a" stroke-width="1"/><circle cx="38" cy="49" r="3" fill="#2b2b2b"/><circle cx="62" cy="49" r="3" fill="#2b2b2b"/><path d="M50 54 Q46 60 50 64 Q54 60 50 54" fill="#d9a46f" stroke="#8a5a2b" stroke-width="1"/><path d="M36 70 Q50 80 64 70" fill="none" stroke="#7a1f1f" stroke-width="2"/><circle cx="62" cy="78" r="6" fill="#e6e6e6" stroke="#b0b0b0" stroke-width="2"/><rect x="60" y="84" width="4" height="8" fill="#b0b0b0"/><rect x="22" y="82" width="56" height="30" rx="6" fill="#4b86ff" stroke="#2c5cb3" stroke-width="2"/><rect x="32" y="92" width="36" height="8" fill="#ffffff"/></svg>